<svg width="70" height="44" viewBox="0 0 70 44" fill="none" xmlns="http://www.w3.org/2000/svg">
<rect x="7.52441" width="66" height="22" rx="4" transform="rotate(20 7.52441 0)" fill="url(#paint0_linear_1749_2102)"/>
<path d="M20.0056 11.992L17.6115 18.5699L16.7376 18.2518L18.8307 12.5009L15.8049 11.3996L13.7118 17.1505L12.8379 16.8324L15.232 10.2545L20.0056 11.992ZM23.1193 19.9041C22.4637 20.2047 21.7913 20.2295 21.1022 19.9787C20.4131 19.7279 19.914 19.2766 19.6049 18.625C19.3021 17.9756 19.2772 17.3032 19.5303 16.6078C19.7834 15.9124 20.2346 15.4133 20.884 15.1105C21.5397 14.81 22.2121 14.7851 22.9012 15.0359C23.5903 15.2867 24.0894 15.738 24.3985 16.3897C24.7076 17.0414 24.7356 17.7149 24.4825 18.4103C24.2294 19.1056 23.775 19.6036 23.1193 19.9041ZM21.3929 19.18C21.8627 19.351 22.3156 19.3349 22.7513 19.1317C23.1871 18.9285 23.4917 18.5888 23.6649 18.1127C23.8382 17.6366 23.8233 17.1806 23.6201 16.7449C23.4169 16.3091 23.0803 16.0057 22.6105 15.8347C22.1469 15.6659 21.6972 15.6832 21.2614 15.8864C20.8257 16.0896 20.5211 16.4293 20.3478 16.9054C20.1745 17.3815 20.1895 17.8374 20.3927 18.2732C20.5959 18.709 20.9293 19.0112 21.3929 19.18ZM30.0546 17.7779L28.3445 22.4764L27.527 22.1788L28.9498 18.2697L27.0986 17.5959L26.4009 19.5129C26.1204 20.2834 25.7677 20.7652 25.3428 20.9581C24.9264 21.1471 24.4454 21.1139 23.8998 20.8586L24.1803 20.0881C24.4838 20.2482 24.7469 20.2659 24.9697 20.1413C25.2009 20.0126 25.4078 19.6977 25.5902 19.1965L26.5684 16.509L30.0546 17.7779ZM34.5729 19.4224L35.4469 19.7405L31.7138 24.0326C31.3195 24.4921 30.8905 24.7936 30.4268 24.9369C29.9609 25.0866 29.5018 25.0614 29.0496 24.8614L29.3267 24.1002C29.8871 24.3538 30.4239 24.1945 30.9373 23.6222L31.074 23.4805L30.7484 18.0304L31.6129 18.3451L31.8791 22.6135L34.5729 19.4224ZM39.0896 21.0663L39.9071 21.3639L38.197 26.0624L37.3795 25.7648L37.9951 24.0734C37.5599 24.0994 37.1074 24.027 36.6376 23.856C36.0362 23.6371 35.6208 23.3262 35.3914 22.9235C35.1705 22.5167 35.1615 22.0346 35.3644 21.4771L35.9322 19.9172L36.7497 20.2147L36.1991 21.7276C36.0714 22.0784 36.0742 22.3632 36.2074 22.582C36.3469 22.803 36.6014 22.9808 36.971 23.1153C37.4158 23.2772 37.8495 23.3428 38.2721 23.3122L39.0896 21.0663ZM40.7305 24.7497C40.6592 25.1991 40.7317 25.5944 40.948 25.9356C41.1706 26.2792 41.5043 26.5319 41.9491 26.6938C42.5693 26.9195 43.1036 26.855 43.552 26.5003L44.1037 27.1481C43.3887 27.6895 42.5708 27.7926 41.6499 27.4575C40.9044 27.1861 40.3811 26.7332 40.08 26.0986C39.7874 25.46 39.7711 24.7836 40.031 24.0695C40.2887 23.3616 40.7317 22.8559 41.36 22.5525C41.9883 22.2491 42.6658 22.2297 43.3925 22.4942C44.0816 22.745 44.5534 23.1934 44.8078 23.8393C45.0708 24.4813 45.078 25.1437 44.8294 25.8266C44.7861 25.9456 44.7322 26.0643 44.6678 26.1828L40.7305 24.7497ZM43.1121 23.2647C42.6735 23.1051 42.2646 23.0981 41.8852 23.2438C41.5081 23.3833 41.2099 23.6472 40.9905 24.0356L44.129 25.1779C44.222 24.708 44.1697 24.3059 43.9722 23.9715C43.7747 23.6371 43.4879 23.4015 43.1121 23.2647ZM49.879 24.9934L50.6965 25.2909L48.9864 29.9894L48.1689 29.6918L48.8837 27.7279L46.4499 26.8421L45.7351 28.806L44.9176 28.5085L46.6277 23.81L47.4452 24.1076L46.7338 26.0621L49.1676 26.9479L49.879 24.9934ZM54.4118 31.2937C53.7562 31.5942 53.0838 31.6191 52.3947 31.3682C51.7056 31.1174 51.2065 30.6662 50.8974 30.0145C50.5946 29.3651 50.5697 28.6927 50.8228 27.9973C51.0759 27.302 51.5271 26.8029 52.1765 26.5001C52.8322 26.1995 53.5046 26.1746 54.1937 26.4255C54.8828 26.6763 55.3819 27.1275 55.691 27.7792C56.0001 28.4309 56.0281 29.1044 55.775 29.7998C55.5219 30.4952 55.0675 30.9931 54.4118 31.2937ZM52.6854 30.5695C53.1552 30.7405 53.6081 30.7244 54.0438 30.5212C54.4796 30.318 54.7842 29.9783 54.9574 29.5022C55.1307 29.0261 55.1158 28.5702 54.9126 28.1344C54.7094 27.6986 54.3728 27.3952 53.903 27.2242C53.4394 27.0555 52.9897 27.0727 52.5539 27.2759C52.1182 27.4791 51.8136 27.8188 51.6403 28.2949C51.467 28.771 51.482 29.227 51.6852 29.6627C51.8884 30.0985 52.2218 30.4008 52.6854 30.5695Z" fill="white"/>
<defs>
<linearGradient id="paint0_linear_1749_2102" x1="40.5244" y1="0" x2="40.5244" y2="22" gradientUnits="userSpaceOnUse">
<stop stop-color="#B51949"/>
<stop offset="1" stop-color="#FD494B"/>
</linearGradient>
</defs>
</svg>
