<svg width="32" height="32" viewBox="0 0 32 32" fill="none" xmlns="http://www.w3.org/2000/svg">
<path fill-rule="evenodd" clip-rule="evenodd" d="M14.4888 6.73589C12.4363 7.09833 10.8317 7.93652 9.35328 9.41843C8.01665 10.7583 7.19538 12.2802 6.79315 14.1629C6.62451 14.9523 6.62451 17.0352 6.79315 17.8246C7.63907 21.7841 10.7675 24.7206 14.7396 25.2834C15.4446 25.3833 17.2317 25.325 17.8892 25.1806C21.8075 24.3205 24.7245 21.1906 25.2835 17.2469C25.3834 16.5419 25.325 14.7551 25.1807 14.0975C24.7765 12.2565 23.9432 10.7362 22.5982 9.38593C21.2636 8.0461 19.7546 7.21929 17.8892 6.80573C17.2268 6.65887 15.1649 6.61656 14.4888 6.73589ZM16.4698 11.4618C16.894 11.6755 17.0395 12.3126 16.7599 12.7311C16.2497 13.4948 15.0785 13.1579 15.0776 12.2471C15.0772 11.8096 15.2805 11.533 15.7143 11.3809C15.9742 11.2898 16.1705 11.3109 16.4698 11.4618ZM16.3776 14.7273C16.6977 14.9515 16.7122 15.0848 16.7122 17.8143C16.7122 19.2135 16.6939 20.4498 16.6715 20.5617C16.5821 21.0084 16.1106 21.2523 15.7067 21.0606C15.268 20.8525 15.2658 20.836 15.2872 17.7545L15.3062 15.0021L15.5198 14.8114C15.7674 14.5902 16.131 14.5546 16.3776 14.7273Z" fill="#050411"/>
</svg>
